<svg width="221" height="118" viewBox="0 0 221 118" fill="none" xmlns="http://www.w3.org/2000/svg">
<g id="Logo" clip-path="url(#clip0_14647_705)">
<path id="Vector" d="M124.882 78.8613H115.961V116.789H124.882V78.8613Z" fill="white"/>
<path id="Vector_2" d="M143.22 95.5409C142.55 95.5451 141.905 95.2831 141.427 94.8125C140.95 94.3419 140.678 93.701 140.672 93.0302V83.4992C140.766 79.9497 146.045 79.9418 146.139 83.4992V90.795H150.773V85.7816C150.372 76.1561 136.439 76.1561 136.038 85.7816V94.6594C136.033 95.3412 136.218 96.0111 136.57 96.5945C136.923 97.178 137.43 97.6524 138.036 97.9649C137.405 98.2558 136.876 98.7309 136.519 99.3278C136.163 99.9248 135.995 100.616 136.038 101.31V110.085C136.439 119.719 150.379 119.719 150.773 110.085V100.129H153.92V95.5409H143.22ZM143.409 115.052C142.689 115.056 141.996 114.774 141.483 114.268C140.969 113.762 140.678 113.073 140.672 112.352V102.64C140.675 102.307 140.743 101.978 140.873 101.672C141.004 101.366 141.193 101.088 141.43 100.855C141.668 100.622 141.949 100.438 142.257 100.313C142.566 100.189 142.896 100.126 143.228 100.129H146.139V112.36C146.133 113.079 145.842 113.766 145.33 114.27C144.819 114.775 144.128 115.056 143.409 115.052Z" fill="white"/>
<path id="Vector_3" d="M9.30805 116.789C9.30805 99.9935 8.21454 77.1615 16.2074 63.8449C17.1672 62.1449 18.5675 62.1763 19.5588 63.8921C26.2457 75.6032 26.7649 94.7912 26.3952 116.789H35.6783V100.812C35.6783 78.775 26.6391 67.2527 21.4075 62.4125C20.4659 61.5243 19.2234 61.025 17.9293 61.0148C16.6352 61.0046 15.385 61.4842 14.4295 62.3574C-0.722387 76.524 -0.0300845 98.0338 0.0171175 116.789H9.30805Z" fill="white"/>
<path id="Vector_4" d="M56.2058 116.793V90.5611C56.2058 86.1694 59.5493 82.612 63.6795 82.612C67.8097 82.612 71.1296 86.1616 71.1296 90.5454V116.793H80.5149V90.5611C80.5149 86.1694 83.8584 82.612 87.9807 82.612C92.103 82.612 95.4386 86.1616 95.4386 90.5454V116.793H104.816V96.4639C104.895 80.6444 86.3994 72.3491 75.8183 84.0917C65.245 72.3491 46.7497 80.6523 46.8362 96.4639V116.793H56.2058Z" fill="white"/>
<path id="Vector_5" d="M172.37 116.79V72.913C172.37 70.93 173.157 69.0282 174.559 67.626C175.96 66.2239 177.861 65.4361 179.843 65.4361C181.825 65.4361 183.726 66.2239 185.128 67.626C186.529 69.0282 187.317 70.93 187.317 72.913V116.806H196.702V72.913C196.702 70.93 197.49 69.0282 198.891 67.626C200.293 66.2239 202.194 65.4361 204.176 65.4361C206.158 65.4361 208.059 66.2239 209.461 67.626C210.862 69.0282 211.65 70.93 211.65 72.913V116.806H221.027V78.7685C221.106 63.0829 202.61 54.8583 192.037 66.4986C181.456 54.8505 162.968 63.0829 163.047 78.7685V116.79H172.37Z" fill="white"/>
<path id="Vector_6" d="M17.8435 92.2543C19.69 92.2543 21.187 90.7567 21.187 88.9094C21.187 87.062 19.69 85.5645 17.8435 85.5645C15.9969 85.5645 14.5 87.062 14.5 88.9094C14.5 90.7567 15.9969 92.2543 17.8435 92.2543Z" fill="#8DC63F"/>
<path id="Vector_7" d="M120.39 72.1748C123.471 72.1748 125.968 69.6765 125.968 66.5947C125.968 63.5129 123.471 61.0146 120.39 61.0146C117.31 61.0146 114.812 63.5129 114.812 66.5947C114.812 69.6765 117.31 72.1748 120.39 72.1748Z" fill="#5056A5"/>
<path id="Vector_8" d="M133.015 47.5915C136.708 47.5915 139.702 44.5964 139.702 40.9017C139.702 37.207 136.708 34.2119 133.015 34.2119C129.322 34.2119 126.328 37.207 126.328 40.9017C126.328 44.5964 129.322 47.5915 133.015 47.5915Z" fill="#996598"/>
<path id="Vector_9" d="M157.851 27.6031C162.161 27.6031 165.655 24.1076 165.655 19.7957C165.655 15.4838 162.161 11.9883 157.851 11.9883C153.541 11.9883 150.047 15.4838 150.047 19.7957C150.047 24.1076 153.541 27.6031 157.851 27.6031Z" fill="#D24D70"/>
<path id="Vector_10" d="M192.062 17.8539C196.989 17.8539 200.983 13.858 200.983 8.92891C200.983 3.99976 196.989 0.00390625 192.062 0.00390625C187.135 0.00390625 183.141 3.99976 183.141 8.92891C183.141 13.858 187.135 17.8539 192.062 17.8539Z" fill="#ED1B2F"/>
<path id="Vector_11" d="M32.712 63.8987C34.6628 63.8987 36.2443 62.3165 36.2443 60.3648C36.2443 58.4132 34.6628 56.8311 32.712 56.8311C30.7611 56.8311 29.1797 58.4132 29.1797 60.3648C29.1797 62.3165 30.7611 63.8987 32.712 63.8987Z" fill="#35AA94"/>
<path id="Vector_12" d="M52.9333 50.2596C55.0883 50.2596 56.8353 48.5118 56.8353 46.3559C56.8353 44.1999 55.0883 42.4521 52.9333 42.4521C50.7783 42.4521 49.0312 44.1999 49.0312 46.3559C49.0312 48.5118 50.7783 50.2596 52.9333 50.2596Z" fill="#1EA0CA"/>
<path id="Vector_13" d="M77.3668 46.4196C79.8304 46.4196 81.8274 44.4217 81.8274 41.9571C81.8274 39.4926 79.8304 37.4946 77.3668 37.4946C74.9033 37.4946 72.9062 39.4926 72.9062 41.9571C72.9062 44.4217 74.9033 46.4196 77.3668 46.4196Z" fill="#0088CB"/>
<path id="Vector_14" d="M102.035 53.4703C104.807 53.4703 107.054 51.2222 107.054 48.449C107.054 45.6758 104.807 43.4277 102.035 43.4277C99.2628 43.4277 97.0156 45.6758 97.0156 48.449C97.0156 51.2222 99.2628 53.4703 102.035 53.4703Z" fill="#3777BC"/>
</g>
<defs>
<clipPath id="clip0_14647_705">
<rect width="221" height="117.3" fill="white"/>
</clipPath>
</defs>
</svg>
